<svg xmlns="http://www.w3.org/2000/svg" viewBox="0 0 64 64">
  <defs>
    <linearGradient id="g" x1="0" x2="1" y1="0" y2="1">
      <stop offset="0" stop-color="#6aa6ff"/>
      <stop offset="0.5" stop-color="#2f6bff"/>
      <stop offset="1" stop-color="#3a36ff"/>
    </linearGradient>
    <filter id="s" x="-20%" y="-20%" width="140%" height="140%">
      <feDropShadow dx="0" dy="2" stdDeviation="2" flood-color="#08152c" flood-opacity="0.35"/>
    </filter>
  </defs>
  <rect x="6" y="6" width="52" height="52" rx="14" fill="url(#g)"/>
  <path fill="#ffffff" filter="url(#s)" d="M36.9 14.7l2.2 3.8c.3.5.9.8 1.5.7l4.3-.8 2.7 4.6-3.4 2.8c-.5.4-.7 1-.5 1.6l1.4 4.1-4.6 2.7-2.8-3.4c-.4-.5-1-.7-1.6-.5l-4.1 1.4-2.7-4.6 3.4-2.8c.5-.4.7-1 .5-1.6l-1.4-4.1 4.6-2.7 2.8 3.4c.4.5 1 .7 1.6.5l4.1-1.4zM32 24.7a7.3 7.3 0 1 0 0 14.6 7.3 7.3 0 0 0 0-14.6z"/>
  <path fill="#ff1744" d="M18.5 46.2l6.3-6.3 3.6 3.6-6.3 6.3c-.7.7-1.9.7-2.6 0l-1-1c-.7-.7-.7-1.9 0-2.6z"/>
</svg>
